<svg width="16" height="16" viewBox="0 0 16 16" fill="none" xmlns="http://www.w3.org/2000/svg">
<path fill-rule="evenodd" clip-rule="evenodd" d="M9.45461 8.54513L5.44555 12.5542L3.31328 10.8484L1.11312 12.6085L0.0782241 11.3149L3.31328 8.72684L5.3226 10.3343L8.28319 7.37371L9.45461 8.54513Z" fill="#29845A"/>
<path fill-rule="evenodd" clip-rule="evenodd" d="M4.77004 1.09026L7.45487 1.09026V2.74689H4.80425C4.09473 2.74689 3.61241 2.74754 3.23959 2.778C2.87644 2.80767 2.69073 2.86145 2.56118 2.92746C2.24946 3.08628 1.99603 3.33972 1.8372 3.65143C1.77119 3.78098 1.71741 3.9667 1.68774 4.32984C1.65728 4.70266 1.65664 5.18499 1.65664 5.89451V11.1957C1.65664 11.9053 1.65728 12.3876 1.68774 12.7604C1.71741 13.1236 1.77119 13.3093 1.8372 13.4388C1.99603 13.7505 2.24946 14.004 2.56118 14.1628C2.69073 14.2288 2.87644 14.2826 3.23959 14.3123C3.61241 14.3427 4.09473 14.3434 4.80425 14.3434H10.1055C10.815 14.3434 11.2973 14.3427 11.6702 14.3123C12.0333 14.2826 12.219 14.2288 12.3486 14.1628C12.6603 14.004 12.9137 13.7505 13.0725 13.4388C13.1386 13.3093 13.1923 13.1236 13.222 12.7604C13.2525 12.3876 13.2531 11.9053 13.2531 11.1957V8.54513H14.9097V11.23C14.9098 11.8967 14.9098 12.447 14.8731 12.8953C14.8351 13.3609 14.7535 13.7889 14.5486 14.1909C14.231 14.8143 13.7241 15.3212 13.1007 15.6389C12.6987 15.8437 12.2707 15.9254 11.8051 15.9634C11.3568 16 10.8065 16 10.1397 16H4.77002C4.10326 16 3.55296 16 3.10468 15.9634C2.63909 15.9254 2.21109 15.8437 1.80908 15.6389C1.18565 15.3212 0.678781 14.8143 0.361126 14.1909C0.156291 13.7889 0.0746479 13.3609 0.0366072 12.8953C-1.8897e-05 12.447 -1.02083e-05 11.8967 3.57246e-07 11.23V5.8603C-1.02083e-05 5.19353 -1.8897e-05 4.64322 0.0366072 4.19494C0.0746479 3.72934 0.156291 3.30135 0.361126 2.89934C0.678781 2.2759 1.18565 1.76904 1.80908 1.45138C2.21109 1.24655 2.63909 1.1649 3.10468 1.12686C3.55297 1.09024 4.10327 1.09025 4.77004 1.09026Z" fill="#29845A"/>
<path fill-rule="evenodd" clip-rule="evenodd" d="M9.90622 2.71329L10.8107 0H12.3823L13.2867 2.71329L16 3.61772V5.18934L13.2867 6.09377L12.3823 8.80707H10.8107L9.90622 6.09377L7.19293 5.18934V3.61772L9.90622 2.71329ZM11.5965 2.88131L11.3469 3.63007L10.823 4.15395L10.0742 4.40353L10.823 4.65312L11.3469 5.17699L11.5965 5.92575L11.8461 5.17699L12.3699 4.65312L13.1187 4.40353L12.3699 4.15395L11.8461 3.63007L11.5965 2.88131Z" fill="#29845A"/>
</svg>
