<svg width="13" height="15" viewBox="0 0 13 15" fill="none" xmlns="http://www.w3.org/2000/svg">
<path d="M9.36038 0.248323C9.02928 -0.0827743 8.49247 -0.0827742 8.16137 0.248323C7.83027 0.57942 7.83027 1.11623 8.16137 1.44733L10.1053 3.39131H5.65218C2.53057 3.39131 0 5.92187 0 9.04348C0 12.1651 2.53057 14.6957 5.65218 14.6957H7.34783C7.81607 14.6957 8.19566 14.3161 8.19566 13.8478C8.19566 13.3796 7.81607 13 7.34783 13H5.65218C3.46705 13 1.69565 11.2286 1.69565 9.04348C1.69565 6.85836 3.46705 5.08696 5.65218 5.08696H10.1053L8.16137 7.03094C7.83027 7.36203 7.83027 7.89885 8.16137 8.22994C8.49247 8.56104 9.02928 8.56104 9.36038 8.22994L12.7517 4.83864C13.0828 4.50754 13.0828 3.97073 12.7517 3.63963L9.36038 0.248323Z" fill="#CCCCCC"/>
</svg>
