<svg width="17" height="17" viewBox="0 0 17 17" fill="none" xmlns="http://www.w3.org/2000/svg">
<path d="M11.0844 7.07304H4.63317C4.54219 7.07304 4.46775 7.14748 4.46775 7.23845V8.47907C4.46775 8.57004 4.54219 8.64448 4.63317 8.64448H11.0844C11.1753 8.64448 11.2498 8.57004 11.2498 8.47907V7.23845C11.2498 7.14748 11.1753 7.07304 11.0844 7.07304ZM16.9566 15.84L13.9378 12.8212C16.4624 9.74242 16.2867 5.18111 13.4002 2.29668C10.34 -0.765561 5.36926 -0.765561 2.29668 2.29668C-0.765561 5.36926 -0.765561 10.34 2.29668 13.4002C5.18111 16.2867 9.74242 16.4624 12.8212 13.9378L15.84 16.9566C15.9062 17.0145 16.0116 17.0145 16.0675 16.9566L16.9566 16.0675C17.0145 16.0116 17.0145 15.9062 16.9566 15.84ZM12.3043 12.3043C9.84787 14.7586 5.86965 14.7586 3.41323 12.3043C0.95889 9.84787 0.95889 5.86965 3.41323 3.41323C5.86965 0.95889 9.84787 0.95889 12.3043 3.41323C14.7586 5.86965 14.7586 9.84787 12.3043 12.3043Z" fill="black" fill-opacity="0.85"/>
</svg>
