<svg width="11" height="11" viewBox="0 0 11 11" fill="none" xmlns="http://www.w3.org/2000/svg">
<path d="M9.65876 10.7699C9.96561 11.0767 10.463 11.0767 10.7699 10.7699C11.0767 10.463 11.0767 9.96561 10.7699 9.65876L6.61123 5.50001L10.7699 1.3413C11.0767 1.03446 11.0767 0.536967 10.7699 0.230129C10.463 -0.0767095 9.96561 -0.0767095 9.65876 0.230129L5.50001 4.38884L1.3413 0.230129C1.03446 -0.0767095 0.536967 -0.0767095 0.230129 0.230129C-0.0767095 0.536967 -0.0767095 1.03446 0.230129 1.3413L4.38884 5.50001L0.230129 9.65876C-0.0767095 9.96561 -0.0767095 10.463 0.230129 10.7699C0.536967 11.0767 1.03446 11.0767 1.3413 10.7699L5.50001 6.61123L9.65876 10.7699Z" fill="#8A8A8A"/>
</svg>
