<svg xmlns="http://www.w3.org/2000/svg" width="20" height="21" viewBox="0 0 20 21" fill="currentColor">
<path fill-rule="evenodd" clip-rule="evenodd" d="M4.60029 1.52033C4.49321 0.836117 3.49932 0.822689 3.37331 1.50375L3.35556 1.59968C3.18605 2.5158 2.45121 3.22781 1.51998 3.37822C0.836775 3.48858 0.822643 4.45328 1.50233 4.58308L1.5647 4.59499C2.47589 4.769 3.18841 5.47219 3.36473 6.37145L3.38373 6.46837C3.52271 7.17721 4.55057 7.17721 4.68955 6.46837L4.70436 6.39284C4.88287 5.48244 5.60898 4.77333 6.53329 4.60676C7.23721 4.4799 7.19861 3.47532 6.49098 3.37041C5.52171 3.22671 4.7499 2.47631 4.60029 1.52033Z"/>
<path d="M10.9416 5.20035C11.201 4.62953 12 4.60174 12.3131 5.11473L12.3584 5.20035L13.1581 6.96164C13.8564 8.49904 15.0176 9.79116 16.4866 10.6652L16.7337 10.8072L18.1535 11.5883C18.2664 11.6501 18.3616 11.7386 18.4306 11.8457C18.4996 11.9528 18.5401 12.0751 18.5484 12.2015C18.5567 12.3278 18.5326 12.4541 18.4782 12.569C18.4239 12.6839 18.341 12.7836 18.2372 12.8591L18.1543 12.9117L16.7337 13.6928C15.2351 14.5178 14.0297 15.7709 13.2786 17.2845L13.1581 17.5384L12.3584 19.2996C12.099 19.8705 11.3 19.8983 10.9869 19.3853L10.9416 19.2996L10.1419 17.5384C9.44363 16.001 8.28237 14.7088 6.81343 13.8348L6.5663 13.6928L5.14649 12.9117C5.03362 12.8499 4.93836 12.7614 4.86938 12.6543C4.80041 12.5472 4.75992 12.4249 4.7516 12.2985C4.74329 12.1722 4.76741 12.0459 4.82177 11.931C4.87613 11.8161 4.95901 11.7164 5.06284 11.6409L5.14572 11.5883L6.5663 10.8072C8.06487 9.98222 9.27033 8.72913 10.0214 7.2155L10.1419 6.96164L10.9416 5.20035Z"/>
</svg>
