<svg width="14" height="14" viewBox="0 0 14 14" fill="none" xmlns="http://www.w3.org/2000/svg">
<path fill-rule="evenodd" clip-rule="evenodd" d="M0.333496 7.00004C0.333496 10.676 3.32416 13.6667 7.00016 13.6667C10.6762 13.6667 13.6668 10.676 13.6668 7.00004C13.6668 3.32404 10.6762 0.333374 7.00016 0.333374C3.32416 0.333374 0.333496 3.32404 0.333496 7.00004ZM10.4716 5.80478C10.7319 5.54443 10.7319 5.12232 10.4716 4.86197C10.2112 4.60162 9.78911 4.60162 9.52876 4.86197L6.3335 8.05723L4.8049 6.52864C4.54455 6.26829 4.12244 6.26829 3.86209 6.52864C3.60174 6.78899 3.60174 7.2111 3.86209 7.47145L5.86209 9.47144C6.12244 9.73179 6.54455 9.73179 6.8049 9.47144L10.4716 5.80478Z" fill="currentColor"/>
</svg>
