<svg width="11" height="12" viewBox="0 0 11 12" fill="none" xmlns="http://www.w3.org/2000/svg">
<path fill-rule="evenodd" clip-rule="evenodd" d="M6.54166 5.59908L10.5442 9.45151L9.7634 10.2627L6.52101 7.1419L3.90212 9.53089L2.70577 8.34861L1.00653 9.98122L0.226474 9.16932L2.71684 6.77662L3.93313 7.97861L6.54166 5.59908Z" fill="black"/>
<path fill-rule="evenodd" clip-rule="evenodd" d="M1.63293 1.63293L2.17724 0H3.24537L3.78967 1.63293L5.42261 2.17724V3.24536L3.78967 3.78967L3.24537 5.4226H2.17724L1.63293 3.78967L0 3.24536V2.17724L1.63293 1.63293ZM2.7113 1.95823L2.61204 2.256L2.256 2.61204L1.95823 2.7113L2.256 2.81056L2.61204 3.1666L2.7113 3.46437L2.81056 3.1666L3.1666 2.81056L3.46438 2.7113L3.1666 2.61204L2.81056 2.256L2.7113 1.95823Z" fill="black"/>
<path d="M0.178021 10.8741H1.30392V12H0.178021V10.8741Z" fill="black"/>
<path d="M0.178021 5.80753H1.30392V6.93344H0.178021V5.80753Z" fill="black"/>
<path d="M2.42983 10.8741H3.55573V12H2.42983V10.8741Z" fill="black"/>
<path d="M4.68163 10.8741H5.80754V12H4.68163V10.8741Z" fill="black"/>
<path d="M6.93344 10.8741H8.05934V12H6.93344V10.8741Z" fill="black"/>
<path d="M9.18524 10.8741H10.3111V12H9.18524V10.8741Z" fill="black"/>
<path d="M9.18524 6.37049H10.3111V7.49639H9.18524V6.37049Z" fill="black"/>
<path d="M9.18524 4.11868H10.3111V5.24458H9.18524V4.11868Z" fill="black"/>
<path d="M9.18524 1.86687H10.3111V2.99278H9.18524V1.86687Z" fill="black"/>
<path d="M6.93344 1.86687H8.05934V2.99278H6.93344V1.86687Z" fill="black"/>
</svg>
