<svg width="16" height="17" viewBox="0 0 16 17" fill="none" xmlns="http://www.w3.org/2000/svg">
<path d="M15.8667 7.65002C15.8667 8.11946 15.4861 8.50002 15.0167 8.50002C14.5473 8.50002 14.1667 8.11946 14.1667 7.65002C14.1667 5.77225 12.6445 4.25001 10.7667 4.25001H3.32523L4.59848 5.66473C4.91252 6.01366 4.88423 6.55111 4.5353 6.86515C4.18636 7.17919 3.64892 7.1509 3.33487 6.80197L0.784868 3.96863C0.482441 3.6326 0.495957 3.11864 0.815628 2.79897L3.36563 0.24896C3.69758 -0.0829869 4.23577 -0.0829863 4.56772 0.24896C4.89966 0.580907 4.89966 1.1191 4.56772 1.45104L3.46876 2.55001H10.7667C13.5834 2.55001 15.8667 4.83336 15.8667 7.65002Z" fill="#CCCCCC"/>
<path d="M0 9.35002C0 8.88058 0.380559 8.50002 0.850002 8.50002C1.31945 8.50002 1.7 8.88058 1.7 9.35002C1.7 11.2278 3.22224 12.75 5.10001 12.75H12.5415L11.2682 11.3353C10.9542 10.9864 10.9825 10.4489 11.3314 10.1349C11.6803 9.82085 12.2178 9.84914 12.5318 10.1981L15.0818 13.0314C15.3843 13.3674 15.3707 13.8814 15.0511 14.2011L12.5011 16.7511C12.1691 17.083 11.6309 17.083 11.299 16.7511C10.967 16.4191 10.967 15.8809 11.299 15.549L12.3979 14.45H5.10001C2.28335 14.45 0 12.1667 0 9.35002Z" fill="#CCCCCC"/>
</svg>
