<svg width="12" height="12" viewBox="0 0 12 12" fill="none" xmlns="http://www.w3.org/2000/svg">
<rect width="12" height="12" fill="white"/>
<path d="M1.29685 5.89336C1.31052 5.2959 1.43357 4.71621 1.66462 4.1707C1.90115 3.61016 2.24021 3.1084 2.67224 2.675C3.10427 2.2416 3.6074 1.90254 4.16794 1.66602C4.74763 1.42129 5.36286 1.29688 5.99861 1.29688C6.63435 1.29688 7.24958 1.42129 7.8279 1.66602C8.38684 1.90205 8.89442 2.24477 9.32224 2.675C9.45759 2.81035 9.58474 2.95391 9.70232 3.1043L8.87927 3.74688C8.86299 3.75947 8.85059 3.77641 8.8435 3.79574C8.83642 3.81507 8.83493 3.83601 8.83921 3.85615C8.8435 3.87629 8.85338 3.89481 8.86772 3.90958C8.88206 3.92435 8.90028 3.93477 8.92029 3.93965L11.3224 4.52754C11.3908 4.54395 11.4578 4.49199 11.4578 4.42227L11.4687 1.94902C11.4687 1.85742 11.3635 1.80547 11.2924 1.86289L10.5213 2.46582C9.4699 1.12051 7.83474 0.257812 5.99724 0.257812C2.86501 0.257812 0.316575 2.76797 0.257786 5.88789C0.257421 5.90248 0.25998 5.917 0.265313 5.93059C0.270646 5.94417 0.278645 5.95656 0.288838 5.967C0.299031 5.97745 0.311212 5.98575 0.324663 5.99142C0.338115 5.99709 0.352564 6 0.367161 6H1.18747C1.24763 6 1.29548 5.95215 1.29685 5.89336ZM11.6328 6H10.8125C10.7523 6 10.7045 6.04785 10.7031 6.10664C10.6894 6.7041 10.5664 7.28379 10.3353 7.8293C10.0988 8.38984 9.75974 8.89297 9.32771 9.325C8.89164 9.76287 8.37321 10.1101 7.8023 10.3466C7.23139 10.5831 6.61931 10.7043 6.00134 10.7031C5.38358 10.7043 4.77171 10.5831 4.20103 10.3466C3.63035 10.11 3.11215 9.76283 2.67634 9.325C2.54099 9.18965 2.41384 9.04609 2.29626 8.8957L3.11931 8.25312C3.13559 8.24053 3.14799 8.22359 3.15508 8.20426C3.16216 8.18493 3.16365 8.16399 3.15937 8.14385C3.15508 8.12371 3.1452 8.1052 3.13086 8.09042C3.11652 8.07565 3.0983 8.06523 3.07829 8.06035L0.676145 7.47246C0.607786 7.45605 0.540793 7.50801 0.540793 7.57773L0.531223 10.0523C0.531223 10.1439 0.636497 10.1959 0.70759 10.1385L1.47868 9.53555C2.53005 10.8795 4.16521 11.7422 6.00271 11.7422C9.1363 11.7422 11.6834 9.23066 11.7422 6.11211C11.7425 6.09752 11.74 6.083 11.7346 6.06941C11.7293 6.05583 11.7213 6.04344 11.7111 6.033C11.7009 6.02255 11.6887 6.01425 11.6753 6.00858C11.6618 6.00291 11.6474 6 11.6328 6Z" fill="#005BD3"/>
</svg>