<svg width="12" height="12" viewBox="0 0 12 12" fill="none" xmlns="http://www.w3.org/2000/svg">
<path d="M11.7647 2.49774C11.7647 2.87259 11.4608 3.17647 11.086 3.17647C10.7111 3.17647 10.4072 2.87259 10.4072 2.49774V2.0362C10.4072 1.66135 10.1034 1.35747 9.72851 1.35747L2.0362 1.35747C1.66135 1.35747 1.35747 1.66135 1.35747 2.0362V2.49774C1.35747 2.87259 1.05359 3.17647 0.678733 3.17647C0.303879 3.17647 0 2.87259 0 2.49774V2.0362C0 0.911638 0.911638 0 2.0362 0H9.72851C10.8531 0 11.7647 0.911638 11.7647 2.0362V2.49774Z" fill="black"/>
<path d="M6.56109 11.3213C6.56109 11.6961 6.25721 12 5.88235 12C5.5075 12 5.20362 11.6961 5.20362 11.3213V5.26757L3.64736 6.82383C3.3823 7.08889 2.95255 7.08889 2.68748 6.82383C2.42242 6.55877 2.42242 6.12902 2.68748 5.86395L5.40242 3.14902C5.66748 2.88396 6.09723 2.88396 6.36229 3.14902L9.07722 5.86396C9.34228 6.12902 9.34228 6.55877 9.07722 6.82383C8.81216 7.08889 8.38241 7.08889 8.11735 6.82383L6.56109 5.26757L6.56109 11.3213Z" fill="black"/>
</svg>
