<svg width="12" height="12" viewBox="0 0 12 12" fill="none" xmlns="http://www.w3.org/2000/svg">
<path d="M7.69808 1.35848C8.07321 1.35848 8.37732 1.05438 8.37732 0.679242C8.37732 0.304107 8.07321 0 7.69808 0H6.33959C5.96446 0 5.66035 0.304107 5.66035 0.679242C5.66035 1.05438 5.96446 1.35848 6.33959 1.35848L7.69808 1.35848Z" fill="#4A4A4A"/>
<path d="M11.3207 2.71697C10.9456 2.71697 10.6415 2.41286 10.6415 2.03773V1.5849C10.6415 1.45985 10.5401 1.35848 10.415 1.35848L9.96222 1.35848C9.58708 1.35848 9.28298 1.05438 9.28298 0.679242C9.28298 0.304107 9.58708 0 9.96222 0H10.415C11.2904 0 11.9999 0.709583 11.9999 1.5849V2.03773C11.9999 2.41286 11.6958 2.71697 11.3207 2.71697Z" fill="#4A4A4A"/>
<path d="M11.3207 3.62262C11.6958 3.62262 11.9999 3.92673 11.9999 4.30187V5.66035C11.9999 6.03549 11.6958 6.33959 11.3207 6.33959C10.9456 6.33959 10.6415 6.03549 10.6415 5.66035V4.30187C10.6415 3.92673 10.9456 3.62262 11.3207 3.62262Z" fill="#4A4A4A"/>
<path d="M2.71697 7.69808C2.34183 7.69808 2.03773 7.39397 2.03773 7.01884L2.03773 2.31908L1.15954 3.19727C0.894278 3.46253 0.464206 3.46253 0.198945 3.19727C-0.0663151 2.93201 -0.0663151 2.50193 0.198945 2.23667L2.23667 0.198946C2.50193 -0.0663143 2.932 -0.0663144 3.19727 0.198946L5.23499 2.23667C5.50025 2.50193 5.50025 2.932 5.23499 3.19727C4.96973 3.46253 4.53966 3.46253 4.2744 3.19727L3.39621 2.31908L3.39621 7.01884C3.39621 7.39397 3.0921 7.69808 2.71697 7.69808Z" fill="#4A4A4A"/>
<path d="M4.98111 8.60373C4.60597 8.60373 4.30187 8.90784 4.30187 9.28298C4.30187 9.65811 4.60597 9.96222 4.98111 9.96222H9.68087L8.80268 10.8404C8.53742 11.1057 8.53742 11.5357 8.80268 11.801C9.06794 12.0663 9.49801 12.0663 9.76327 11.801L11.801 9.76327C12.0663 9.49801 12.0663 9.06794 11.801 8.80268L9.76327 6.76495C9.49801 6.49969 9.06794 6.49969 8.80268 6.76495C8.53742 7.03021 8.53742 7.46029 8.80268 7.72555L9.68087 8.60373H4.98111Z" fill="#4A4A4A"/>
</svg>
