<svg width="15" height="15" viewBox="0 0 15 15" fill="none" xmlns="http://www.w3.org/2000/svg">
<path d="M10.5859 5.96415H0.604911C0.270319 5.96415 0 6.23447 0 6.56906V14.3951C0 14.7297 0.270319 15 0.604911 15H10.5859C10.9205 15 11.1908 14.7297 11.1908 14.3951V6.56906C11.1908 6.23447 10.9205 5.96415 10.5859 5.96415ZM9.75418 13.5633H1.43666V7.40082H9.75418V13.5633Z" fill="black" fill-opacity="0.85"/>
<path d="M13.371 4.27175C11.8814 2.36817 9.66593 1.36818 7.42398 1.35684L7.4202 0.147016C7.4202 0.024143 7.27654 -0.0439096 7.18202 0.0317043L4.76238 1.94096C4.68677 1.99956 4.68866 2.11298 4.76238 2.17347L7.18391 4.08461C7.28032 4.16022 7.42398 4.09217 7.42209 3.9693V2.76137C7.66595 2.76326 7.91169 2.77838 8.15555 2.80863C8.95138 2.90692 9.70752 3.15267 10.4051 3.54019C11.1253 3.94094 11.751 4.47969 12.2652 5.13375C12.7774 5.7897 13.1479 6.52694 13.3634 7.32278C13.5714 8.09215 13.6281 8.88609 13.5317 9.68193C13.5185 9.78401 13.5052 9.88609 13.4863 9.98627H14.9022C15.182 8.02787 14.6886 5.95983 13.371 4.27175Z" fill="black" fill-opacity="0.85"/>
</svg>
