<svg width="15" height="15" viewBox="0 0 15 15" fill="none" xmlns="http://www.w3.org/2000/svg">
<path d="M6.82334 2.80898C7.06911 2.77873 7.313 2.7636 7.55688 2.76171V3.9698C7.55688 4.09268 7.69868 4.16075 7.7951 4.08512L10.2169 2.17374C10.2926 2.11324 10.2926 1.99981 10.2169 1.9412L7.79699 0.0317083C7.70057 -0.0439151 7.55877 0.0241459 7.55877 0.147034L7.55499 1.35701C5.31276 1.36646 3.097 2.36658 1.60722 4.27229C0.291377 5.95869 -0.202065 8.02699 0.0739596 9.98942H1.49001C1.47299 9.88921 1.45787 9.78712 1.44463 9.68503C1.34821 8.8891 1.40493 8.09505 1.61289 7.32558C1.82842 6.52776 2.19897 5.79232 2.71132 5.13629C3.22556 4.48025 3.85134 3.94144 4.57165 3.54252C5.27117 3.15306 6.02551 2.90729 6.82334 2.80898Z" fill="black" fill-opacity="0.85"/>
<path d="M14.3767 5.96302H4.39445C4.05981 5.96302 3.78946 6.23337 3.78946 6.568V14.395C3.78946 14.7297 4.05981 15 4.39445 15H14.3767C14.7114 15 14.9817 14.7297 14.9817 14.395V6.568C14.9817 6.23337 14.7114 5.96302 14.3767 5.96302ZM13.5449 13.5632H5.2263V7.39986H13.5449V13.5632Z" fill="black" fill-opacity="0.85"/>
</svg>
