<svg width="13" height="15" viewBox="0 0 13 15" fill="none" xmlns="http://www.w3.org/2000/svg">
<path d="M3.63963 0.248323C3.97073 -0.0827742 4.50754 -0.0827742 4.83864 0.248323C5.16973 0.57942 5.16973 1.11623 4.83864 1.44733L2.89466 3.39131H7.34783C10.4694 3.39131 13 5.92187 13 9.04348C13 12.1651 10.4694 14.6957 7.34783 14.6957H5.65218C5.18394 14.6957 4.80435 14.3161 4.80435 13.8478C4.80435 13.3796 5.18394 13 5.65218 13H7.34783C9.53296 13 11.3044 11.2286 11.3044 9.04348C11.3044 6.85836 9.53296 5.08696 7.34783 5.08696H2.89466L4.83864 7.03094C5.16973 7.36203 5.16973 7.89885 4.83864 8.22994C4.50754 8.56104 3.97073 8.56104 3.63963 8.22994L0.248323 4.83864C-0.0827742 4.50754 -0.0827742 3.97073 0.248323 3.63963L3.63963 0.248323Z" fill="#CCCCCC"/>
</svg>
