<svg width="20" height="20" viewBox="0 0 20 20" fill="none" xmlns="http://www.w3.org/2000/svg">
<path d="M12.4414 8.65234H6.34766C6.26172 8.65234 6.19141 8.72266 6.19141 8.80859V9.98047C6.19141 10.0664 6.26172 10.1367 6.34766 10.1367H12.4414C12.5273 10.1367 12.5977 10.0664 12.5977 9.98047V8.80859C12.5977 8.72266 12.5273 8.65234 12.4414 8.65234ZM17.9883 16.9336L15.1367 14.082C17.5215 11.1738 17.3555 6.86523 14.6289 4.14063C11.7383 1.24805 7.04297 1.24805 4.14063 4.14063C1.24805 7.04297 1.24805 11.7383 4.14063 14.6289C6.86523 17.3555 11.1738 17.5215 14.082 15.1367L16.9336 17.9883C16.9961 18.043 17.0957 18.043 17.1484 17.9883L17.9883 17.1484C18.043 17.0957 18.043 16.9961 17.9883 16.9336ZM13.5938 13.5938C11.2734 15.9121 7.51563 15.9121 5.19531 13.5938C2.87695 11.2734 2.87695 7.51563 5.19531 5.19531C7.51563 2.87695 11.2734 2.87695 13.5938 5.19531C15.9121 7.51563 15.9121 11.2734 13.5938 13.5938Z" fill="black" fill-opacity="0.85"/>
</svg>
